# File created by Blade
# Date/Time:  Fri Jan 16 19:18:57 2015
# Frame Rate: 120.000 fps
#------------------------------------------------------
:FULLY-SPECIFIED
:DEGREES
726
root 19.857893 35.736712 -22.088425 -166.767703 -1.769023 -178.464160
Spine -26.734708 -4.980133 2.668619
Head 17.785609 -5.078825 19.764220
LeftShoulder -26.577518 -67.714927 83.664067
LeftArm 62.897798 -45.673478 -22.977666
LeftForeArm -66.679319 -0.000000 105.099751
LeftHand 7.615173 -0.000000 -1.403345
LeftHandThumb1 -26.253704 0.000000 33.147579
RightShoulder -15.849029 11.897937 -33.899689
RightArm 31.927512 78.213452 0.851849
RightForeArm 43.538005 -0.000000 88.441369
RightHand 6.350504 -0.000000 9.804013
RightHandThumb1 -24.326973 -0.000000 -32.862282
LeftUpLeg -4.688217 8.984862 0.042311
LeftLeg -6.912959 -0.000000 0.000000
LeftFoot -19.237271 25.641171 -14.705161
LeftToeBase 25.418932 -0.000000 -0.000000
RightUpLeg -5.051391 -6.289438 1.603683
RightLeg -3.680472 -0.000000 0.000000
RightFoot -20.484710 -24.144040 19.459958
RightToeBase 22.520045 -0.000000 -0.000000
727
root 19.861564 35.736656 -22.088506 -166.761340 -1.772610 -178.455304
Spine -26.736553 -4.970682 2.623702
Head 17.747489 -5.139866 19.813926
LeftShoulder -26.634822 -67.705919 83.721694
LeftArm 62.811868 -45.660445 -22.850984
LeftForeArm -66.590687 0.000000 105.057034
LeftHand 7.579479 0.000000 -1.411489
LeftHandThumb1 -26.253704 0.000000 33.147579
RightShoulder -15.886921 11.964866 -33.939485
RightArm 32.109712 78.176585 1.047191
RightForeArm 43.580675 -0.000000 88.439518
RightHand 6.342016 -0.000000 9.802798
RightHandThumb1 -24.326973 -0.000000 -32.862282
LeftUpLeg -4.674482 8.912760 0.069078
LeftLeg -6.946266 -0.000000 0.000000
LeftFoot -19.230269 25.692488 -14.725414
LeftToeBase 25.425541 -0.000000 -0.000000
RightUpLeg -5.064786 -6.293050 1.620115
RightLeg -3.667454 -0.000000 0.000000
RightFoot -20.496673 -24.164058 19.473067
RightToeBase 22.427711 -0.000000 -0.000000
728
root 19.865283 35.736769 -22.088860 -166.748310 -1.782830 -178.445280
Spine -26.753024 -4.976686 2.595440
Head 17.728966 -5.207537 19.819594
LeftShoulder -26.837317 -67.763556 83.969472
LeftArm 62.602368 -45.565847 -22.707903
LeftForeArm -66.531728 -0.000000 105.077317
LeftHand 7.568469 -0.000000 -1.574383
LeftHandThumb1 -26.253704 0.000000 33.147579
RightShoulder -15.928486 12.012409 -33.940849
RightArm 32.574522 78.171507 1.468452
RightForeArm 43.550455 -0.000000 88.383189
RightHand 6.350337 -0.000000 9.872960
RightHandThumb1 -24.326973 -0.000000 -32.862282
LeftUpLeg -4.686737 8.878038 0.088256
LeftLeg -6.949026 -0.000000 0.000000
LeftFoot -19.241334 25.720790 -14.736861
LeftToeBase 25.404840 -0.000000 -0.000000
RightUpLeg -5.078852 -6.294472 1.638811
RightLeg -3.667310 -0.000000 0.000000
RightFoot -20.471554 -24.094568 19.572409
RightToeBase 22.253154 -0.000000 -0.000000
729
root 19.868577 35.736691 -22.089013 -166.736642 -1.787626 -178.443921
Spine -26.767099 -4.976150 2.542783
Head 17.714531 -5.295911 19.835121
LeftShoulder -26.770844 -67.688750 83.867071
LeftArm 62.659733 -45.618494 -22.681968
LeftForeArm -66.407100 -0.000000 104.975808
LeftHand 7.578906 -0.000000 -1.695468
LeftHandThumb1 -26.253704 0.000000 33.147579
RightShoulder -15.979685 12.018812 -33.903541
RightArm 33.106596 78.205503 1.944429
RightForeArm 43.493565 -0.000000 88.343935
RightHand 6.314133 -0.000000 9.858301
RightHandThumb1 -24.326973 -0.000000 -32.862282
LeftUpLeg -4.697234 8.866865 0.094676
LeftLeg -6.952557 -0.000000 0.000000
LeftFoot -19.239268 25.729385 -14.726706
LeftToeBase 25.425267 -0.000000 -0.000000
RightUpLeg -5.095955 -6.298450 1.649121
RightLeg -3.650356 -0.000000 0.000000
RightFoot -20.504300 -24.138249 19.469584
RightToeBase 22.477719 -0.000000 -0.000000
730
root 19.873155 35.737232 -22.089488 -166.728941 -1.794206 -178.428529
Spine -26.783845 -4.975379 2.501351
Head 17.722763 -5.372128 19.860986
LeftShoulder -26.603706 -67.562638 83.675491
LeftArm 62.725666 -45.743775 -22.664862
LeftForeArm -66.472644 -0.000000 104.924217
LeftHand 7.567437 -0.000000 -1.668158
LeftHandThumb1 -26.253704 0.000000 33.147579
RightShoulder -15.989354 11.991408 -33.824626
RightArm 33.315000 78.260833 2.062872
RightForeArm 43.471669 -0.000000 88.286752
RightHand 6.339105 -0.000000 9.827969
RightHandThumb1 -24.326973 -0.000000 -32.862282
LeftUpLeg -4.706774 8.850436 0.118037
LeftLeg -6.949786 -0.000000 0.000000
LeftFoot -19.240551 25.751201 -14.723499
LeftToeBase 25.409236 -0.000000 -0.000000
RightUpLeg -5.107173 -6.327092 1.675278
RightLeg -3.646240 -0.000000 0.000000
RightFoot -20.468203 -24.048639 19.586390
RightToeBase 22.196669 -0.000000 -0.000000
731
root 19.876546 35.737428 -22.089372 -166.720724 -1.793202 -178.419379
Spine -26.798308 -4.969881 2.456573
Head 17.731933 -5.442014 19.870154
LeftShoulder -26.377074 -67.440394 83.423631
LeftArm 62.837220 -45.893785 -22.678444
LeftForeArm -66.460209 0.000000 104.839586
LeftHand 7.581244 -0.000000 -1.732842
LeftHandThumb1 -26.253704 0.000000 33.147579
RightShoulder -15.989163 11.971464 -33.759730
RightArm 33.323153 78.303387 2.013689
RightForeArm 43.523541 -0.000000 88.265622
RightHand 6.328113 -0.000000 9.818024
RightHandThumb1 -24.326973 -0.000000 -32.862282
LeftUpLeg -4.720901 8.856899 0.129352
LeftLeg -6.941016 -0.000000 0.000000
LeftFoot -19.251436 25.748316 -14.722165
LeftToeBase 25.409924 -0.000000 -0.000000
RightUpLeg -5.121218 -6.317001 1.690204
RightLeg -3.639021 -0.000000 0.000000
RightFoot -20.481229 -24.053996 19.614275
RightToeBase 22.170766 -0.000000 -0.000000
732
root 19.880258 35.736786 -22.089638 -166.704629 -1.798182 -178.410213
Spine -26.820664 -4.967768 2.419615
Head 17.738324 -5.475142 19.871994
LeftShoulder -26.602368 -67.497661 83.692063
LeftArm 62.708852 -45.816267 -22.668973
LeftForeArm -66.562853 -0.000000 104.890094
LeftHand 7.557540 -0.000000 -1.674528
LeftHandThumb1 -26.253704 0.000000 33.147579
RightShoulder -15.979015 11.940146 -33.750511
RightArm 32.985120 78.327342 1.695143
RightForeArm 43.583777 -0.000000 88.284924
RightHand 6.322574 -0.000000 9.789024
RightHandThumb1 -24.326973 -0.000000 -32.862282
LeftUpLeg -4.734114 8.855741 0.144283
LeftLeg -6.948798 -0.000000 0.000000
LeftFoot -19.248606 25.757178 -14.702152
LeftToeBase 25.430733 -0.000000 -0.000000
RightUpLeg -5.144254 -6.338930 1.711702
RightLeg -3.625779 -0.000000 0.000000
RightFoot -20.482264 -24.047224 19.599623
RightToeBase 22.196163 -0.000000 -0.000000
733
root 19.883128 35.736633 -22.090034 -166.700419 -1.801605 -178.399195
Spine -26.835163 -4.963016 2.378763
Head 17.759993 -5.522178 19.883173
LeftShoulder -26.647855 -67.567925 83.773505
LeftArm 62.647500 -45.775092 -22.623563
LeftForeArm -66.648602 -0.000000 104.881796
LeftHand 7.616020 -0.000000 -1.637690
LeftHandThumb1 -26.253704 0.000000 33.147579
RightShoulder -15.949984 11.922531 -33.743942
RightArm 32.375689 78.313181 1.124926
RightForeArm 43.699698 -0.000000 88.335840
RightHand 6.324203 -0.000000 9.735194
RightHandThumb1 -24.326973 -0.000000 -32.862282
LeftUpLeg -4.736983 8.842173 0.161125
LeftLeg -6.949138 -0.000000 0.000000
LeftFoot -19.251966 25.770653 -14.702494
LeftToeBase 25.444784 -0.000000 -0.000000
RightUpLeg -5.151915 -6.353445 1.729992
RightLeg -3.617559 -0.000000 0.000000
RightFoot -20.486648 -24.036447 19.588174
RightToeBase 22.267170 -0.000000 -0.000000
734
root 19.886519 35.736251 -22.090117 -166.688890 -1.801431 -178.385765
Spine -26.856169 -4.956016 2.345574
Head 17.767804 -5.529181 19.903678
LeftShoulder -26.697418 -67.572476 83.826409
LeftArm 62.733288 -45.752464 -22.753619
LeftForeArm -66.740528 -0.000000 104.880003
LeftHand 7.629348 -0.000000 -1.584762
LeftHandThumb1 -26.253704 0.000000 33.147579
RightShoulder -15.926064 11.891455 -33.744886
RightArm 31.727145 78.303572 0.524257
RightForeArm 43.813474 -0.000000 88.397561
RightHand 6.278520 -0.000000 9.662803
RightHandThumb1 -24.326973 -0.000000 -32.862282
LeftUpLeg -4.745208 8.847341 0.177694
LeftLeg -6.957419 -0.000000 0.000000
LeftFoot -19.253914 25.769589 -14.681364
LeftToeBase 25.467348 -0.000000 -0.000000
RightUpLeg -5.166244 -6.358909 1.751815
RightLeg -3.614515 -0.000000 0.000000
RightFoot -20.489542 -24.018381 19.611052
RightToeBase 22.206121 -0.000000 -0.000000
735
root 19.890237 35.736078 -22.090092 -166.680298 -1.800264 -178.371538
Spine -26.873720 -4.947856 2.305613
Head 17.779636 -5.576164 19.924884
LeftShoulder -26.686808 -67.561263 83.825532
LeftArm 62.818704 -45.772679 -22.857987
LeftForeArm -66.876449 0.000000 104.890520
LeftHand 7.630837 -0.000000 -1.293797
LeftHandThumb1 -26.253704 0.000000 33.147579
RightShoulder -15.935030 11.881541 -33.746379
RightArm 31.362362 78.262210 0.215170
RightForeArm 43.905821 0.000000 88.463089
RightHand 6.248017 0.000000 9.609445
RightHandThumb1 -24.326973 -0.000000 -32.862282
LeftUpLeg -4.752483 8.856703 0.197129
LeftLeg -6.958769 -0.000000 0.000000
LeftFoot -19.251168 25.763394 -14.661078
LeftToeBase 25.457618 -0.000000 -0.000000
RightUpLeg -5.182907 -6.353013 1.773645
RightLeg -3.599453 -0.000000 0.000000
RightFoot -20.503154 -24.082640 19.480599
RightToeBase 22.478448 -0.000000 -0.000000
736
root 19.892938 35.735915 -22.090417 -166.676356 -1.796495 -178.359000
Spine -26.888049 -4.950711 2.270861
Head 17.809402 -5.586415 19.940840
LeftShoulder -26.708777 -67.573042 83.862763
LeftArm 62.886833 -45.753922 -22.944183
LeftForeArm -66.988501 -0.000000 104.890567
LeftHand 7.657518 -0.000000 -1.263603
LeftHandThumb1 -26.253704 0.000000 33.147579
RightShoulder -15.931438 11.851752 -33.701820
RightArm 31.125946 78.267440 -0.012184
RightForeArm 43.943826 -0.000000 88.489344
RightHand 6.228346 -0.000000 9.612127
RightHandThumb1 -24.326973 -0.000000 -32.862282
LeftUpLeg -4.749216 8.866361 0.210819
LeftLeg -6.972561 -0.000000 0.000000
LeftFoot -19.251096 25.761044 -14.678873
LeftToeBase 25.417764 -0.000000 -0.000000
RightUpLeg -5.190916 -6.370026 1.793585
RightLeg -3.592443 -0.000000 0.000000
RightFoot -20.500811 -24.056880 19.482283
RightToeBase 22.436990 -0.000000 -0.000000
737
root 19.895774 35.735841 -22.090716 -166.672251 -1.799817 -178.350567
Spine -26.903949 -4.977467 2.235428
Head 17.849175 -5.611186 19.947429
LeftShoulder -26.727053 -67.584139 83.911146
LeftArm 62.948619 -45.728234 -23.019146
LeftForeArm -67.130163 -0.000000 104.884606
LeftHand 7.714611 -0.000000 -1.494852
LeftHandThumb1 -26.253704 0.000000 33.147579
RightShoulder -15.941071 11.840914 -33.630006
RightArm 31.216492 78.266822 0.061336
RightForeArm 43.942085 -0.000000 88.502488
RightHand 6.253115 -0.000000 9.630916
RightHandThumb1 -24.326973 -0.000000 -32.862282
LeftUpLeg -4.753544 8.864244 0.224248
LeftLeg -6.972688 -0.000000 0.000000
LeftFoot -19.247223 25.761831 -14.665571
LeftToeBase 25.425153 -0.000000 -0.000000
RightUpLeg -5.202955 -6.385749 1.809126
RightLeg -3.578630 -0.000000 0.000000
RightFoot -20.492876 -24.048886 19.469909
RightToeBase 22.445351 -0.000000 -0.000000
738
root 19.900772 35.735629 -22.091718 -166.665070 -1.803594 -178.329255
Spine -26.925484 -5.001257 2.207596
Head 17.886528 -5.648327 19.961644
LeftShoulder -26.750377 -67.624409 83.983575
LeftArm 62.999638 -45.696164 -23.093444
LeftForeArm -67.230818 -0.000000 104.886969
LeftHand 7.710363 -0.000000 -1.520990
LeftHandThumb1 -26.253704 0.000000 33.147579
RightShoulder -15.970643 11.839206 -33.543181
RightArm 31.550907 78.258582 0.362841
RightForeArm 43.868534 -0.000000 88.515924
RightHand 6.142450 -0.000000 9.578071
RightHandThumb1 -24.326973 -0.000000 -32.862282
LeftUpLeg -4.749345 8.854941 0.255342
LeftLeg -6.993500 -0.000000 0.000000
LeftFoot -19.246927 25.776737 -14.651032
LeftToeBase 25.476077 -0.000000 -0.000000
RightUpLeg -5.209686 -6.399197 1.841907
RightLeg -3.579460 -0.000000 0.000000
RightFoot -20.482999 -24.038596 19.495225
RightToeBase 22.395730 -0.000000 -0.000000
